<?xml version="1.0" standalone="no"?>
<!DOCTYPE svg PUBLIC "-//W3C//DTD SVG 20010904//EN"
 "http://www.w3.org/TR/2001/REC-SVG-20010904/DTD/svg10.dtd">
<svg version="1.0" xmlns="http://www.w3.org/2000/svg"
 width="44.000000pt" height="44.000000pt" viewBox="0 0 44.000000 44.000000"
 preserveAspectRatio="xMidYMid meet">

<g transform="translate(0.000000,44.000000) scale(0.100000,-0.100000)"
fill="#000000" stroke="none">
<path d="M46 341 c-19 -20 -45 -85 -46 -111 0 -12 9 -15 40 -12 22 2 40 9 40
14 0 6 7 26 17 45 16 34 15 35 -9 59 -24 25 -24 25 -42 5z"/>
<path d="M259 234 c-26 -7 -64 -30 -85 -49 -21 -19 -40 -35 -43 -35 -9 0 -51
-65 -51 -78 0 -16 77 -35 113 -28 77 15 125 60 147 137 8 27 6 32 -11 36 -15
4 -17 8 -8 19 15 18 0 18 -62 -2z"/>
</g>
</svg>
